<mxfile host="app.diagrams.net" modified="2023-09-23T17:53:18.203Z" agent="Mozilla/5.0 (X11; Ubuntu; Linux x86_64; rv:109.0) Gecko/20100101 Firefox/117.0" etag="91yN6rTds96GdyIe9Enb" version="21.7.5" type="device">
  <diagram name="Página-1" id="xLs9KRnPNU1VdvawW_gn">
    <mxGraphModel dx="2246" dy="953" grid="1" gridSize="10" guides="1" tooltips="1" connect="1" arrows="1" fold="1" page="1" pageScale="1" pageWidth="850" pageHeight="1100" math="0" shadow="0">
      <root>
        <mxCell id="0" />
        <mxCell id="1" parent="0" />
        <mxCell id="U4y-PAw1vGgJinDhLiic-22" style="edgeStyle=orthogonalEdgeStyle;rounded=0;orthogonalLoop=1;jettySize=auto;html=1;" edge="1" parent="1" source="U4y-PAw1vGgJinDhLiic-1" target="U4y-PAw1vGgJinDhLiic-9">
          <mxGeometry relative="1" as="geometry">
            <Array as="points">
              <mxPoint x="410" y="270" />
              <mxPoint x="410" y="270" />
            </Array>
          </mxGeometry>
        </mxCell>
        <mxCell id="U4y-PAw1vGgJinDhLiic-23" value="HTTPS" style="edgeLabel;html=1;align=center;verticalAlign=middle;resizable=0;points=[];" vertex="1" connectable="0" parent="U4y-PAw1vGgJinDhLiic-22">
          <mxGeometry x="-0.2773" y="2" relative="1" as="geometry">
            <mxPoint as="offset" />
          </mxGeometry>
        </mxCell>
        <mxCell id="U4y-PAw1vGgJinDhLiic-1" value="" style="shape=cube;whiteSpace=wrap;html=1;boundedLbl=1;backgroundOutline=1;darkOpacity=0.05;darkOpacity2=0.1;size=10;" vertex="1" parent="1">
          <mxGeometry x="60" y="190" width="270" height="210" as="geometry" />
        </mxCell>
        <mxCell id="U4y-PAw1vGgJinDhLiic-2" value="Cliente: Browser" style="text;html=1;strokeColor=none;fillColor=none;align=center;verticalAlign=middle;whiteSpace=wrap;rounded=0;" vertex="1" parent="1">
          <mxGeometry x="130" y="160" width="150" height="30" as="geometry" />
        </mxCell>
        <mxCell id="U4y-PAw1vGgJinDhLiic-3" value="Aplicação WEB" style="rounded=0;whiteSpace=wrap;html=1;" vertex="1" parent="1">
          <mxGeometry x="105" y="265" width="180" height="60" as="geometry" />
        </mxCell>
        <mxCell id="U4y-PAw1vGgJinDhLiic-4" value="" style="shape=cube;whiteSpace=wrap;html=1;boundedLbl=1;backgroundOutline=1;darkOpacity=0.05;darkOpacity2=0.1;size=10;" vertex="1" parent="1">
          <mxGeometry x="600" y="190" width="520" height="400" as="geometry" />
        </mxCell>
        <mxCell id="U4y-PAw1vGgJinDhLiic-5" value="Servidor " style="text;html=1;strokeColor=none;fillColor=none;align=center;verticalAlign=middle;whiteSpace=wrap;rounded=0;" vertex="1" parent="1">
          <mxGeometry x="670" y="160" width="150" height="30" as="geometry" />
        </mxCell>
        <mxCell id="U4y-PAw1vGgJinDhLiic-13" style="edgeStyle=orthogonalEdgeStyle;rounded=0;orthogonalLoop=1;jettySize=auto;html=1;" edge="1" parent="1" source="U4y-PAw1vGgJinDhLiic-9" target="U4y-PAw1vGgJinDhLiic-12">
          <mxGeometry relative="1" as="geometry" />
        </mxCell>
        <mxCell id="U4y-PAw1vGgJinDhLiic-16" style="edgeStyle=orthogonalEdgeStyle;rounded=0;orthogonalLoop=1;jettySize=auto;html=1;entryX=0.5;entryY=0;entryDx=0;entryDy=0;" edge="1" parent="1" source="U4y-PAw1vGgJinDhLiic-9" target="U4y-PAw1vGgJinDhLiic-11">
          <mxGeometry relative="1" as="geometry" />
        </mxCell>
        <mxCell id="U4y-PAw1vGgJinDhLiic-9" value="View" style="rounded=0;whiteSpace=wrap;html=1;" vertex="1" parent="1">
          <mxGeometry x="655" y="240" width="180" height="60" as="geometry" />
        </mxCell>
        <mxCell id="U4y-PAw1vGgJinDhLiic-14" style="edgeStyle=orthogonalEdgeStyle;rounded=0;orthogonalLoop=1;jettySize=auto;html=1;" edge="1" parent="1" source="U4y-PAw1vGgJinDhLiic-11" target="U4y-PAw1vGgJinDhLiic-12">
          <mxGeometry relative="1" as="geometry" />
        </mxCell>
        <mxCell id="U4y-PAw1vGgJinDhLiic-15" style="edgeStyle=orthogonalEdgeStyle;rounded=0;orthogonalLoop=1;jettySize=auto;html=1;" edge="1" parent="1" source="U4y-PAw1vGgJinDhLiic-11" target="U4y-PAw1vGgJinDhLiic-9">
          <mxGeometry relative="1" as="geometry" />
        </mxCell>
        <mxCell id="U4y-PAw1vGgJinDhLiic-21" style="edgeStyle=orthogonalEdgeStyle;rounded=0;orthogonalLoop=1;jettySize=auto;html=1;entryX=0;entryY=0;entryDx=270;entryDy=110;entryPerimeter=0;" edge="1" parent="1" source="U4y-PAw1vGgJinDhLiic-11" target="U4y-PAw1vGgJinDhLiic-17">
          <mxGeometry relative="1" as="geometry">
            <Array as="points">
              <mxPoint x="750" y="740" />
            </Array>
          </mxGeometry>
        </mxCell>
        <mxCell id="U4y-PAw1vGgJinDhLiic-11" value="Services" style="rounded=0;whiteSpace=wrap;html=1;" vertex="1" parent="1">
          <mxGeometry x="655" y="480" width="180" height="60" as="geometry" />
        </mxCell>
        <mxCell id="U4y-PAw1vGgJinDhLiic-12" value="Model" style="rounded=0;whiteSpace=wrap;html=1;" vertex="1" parent="1">
          <mxGeometry x="900" y="370" width="180" height="60" as="geometry" />
        </mxCell>
        <mxCell id="U4y-PAw1vGgJinDhLiic-17" value="" style="shape=cube;whiteSpace=wrap;html=1;boundedLbl=1;backgroundOutline=1;darkOpacity=0.05;darkOpacity2=0.1;size=10;" vertex="1" parent="1">
          <mxGeometry x="285" y="630" width="270" height="210" as="geometry" />
        </mxCell>
        <mxCell id="U4y-PAw1vGgJinDhLiic-18" value="Banco de dados" style="text;html=1;strokeColor=none;fillColor=none;align=center;verticalAlign=middle;whiteSpace=wrap;rounded=0;" vertex="1" parent="1">
          <mxGeometry x="355" y="600" width="150" height="30" as="geometry" />
        </mxCell>
        <mxCell id="U4y-PAw1vGgJinDhLiic-19" value="SQLite" style="rounded=0;whiteSpace=wrap;html=1;" vertex="1" parent="1">
          <mxGeometry x="330" y="705" width="180" height="60" as="geometry" />
        </mxCell>
        <mxCell id="U4y-PAw1vGgJinDhLiic-24" value="HTTPS" style="text;html=1;align=center;verticalAlign=middle;resizable=0;points=[];autosize=1;strokeColor=none;fillColor=none;" vertex="1" parent="1">
          <mxGeometry x="630" y="720" width="60" height="30" as="geometry" />
        </mxCell>
      </root>
    </mxGraphModel>
  </diagram>
</mxfile>
